# xmcd
#
# Track frame offsets: 
#        150
#        16150
#        32670
#        53770
#        70155
#        88750
#        104357
#        117530
#        132312
#        149577
#        167205
#        183300
#        199492
#        215987
#        232112
#        251262
#
# Disc length: 3614 seconds
#
# Revision: 5
# Processed by: cddbd v1.5.1PL0 Copyright (c) Steve Scherf et al.
# Submitted via: ExactAudioCopy v0.95a5
#
DISCID=f40e1c10
DTITLE=Shania Twain - Come on Over [International]
DYEAR=1999
DGENRE=Country
TTITLE0=You're Still the One
TTITLE1=When
TTITLE2=From This Moment On
TTITLE3=Black Eyes, Blue Tears
TTITLE4=I Won't Leave You Lonely
TTITLE5=I'm Holdin' on to Love (To Save My Life)
TTITLE6=Come on Over
TTITLE7=You've Got a Way
TTITLE8=Whatever You Do! Don't!
TTITLE9=Man! I Feel Like a Woman!
TTITLE10=Love Gets Me Every Time
TTITLE11=Don't Be Stupid (You Know I Love You)
TTITLE12=That Don't Impress Me Much
TTITLE13=Honey, I'm Home
TTITLE14=If You Wanna Touch Her, Ask!
TTITLE15=Rock This Country!
EXTD=
EXTT0=
EXTT1=
EXTT2=
EXTT3=
EXTT4=
EXTT5=
EXTT6=
EXTT7=
EXTT8=
EXTT9=
EXTT10=
EXTT11=
EXTT12=
EXTT13=
EXTT14=
EXTT15=
PLAYORDER=
